<svg xmlns="http://www.w3.org/2000/svg" width="313" height="64">
    <path fill-rule="evenodd" d="M306.096 47.283V32.414c0-2.015-.521-3.567-1.561-4.655-1.042-1.088-2.522-1.632-4.443-1.632-2.322 0-4.303.827-5.944 2.479v18.677h-6.905V4.972h6.905v17.589c2.001-1.974 4.583-2.962 7.745-2.962 7.405 0 11.107 3.97 11.107 11.908v15.776h-6.904zm-34.583-5.803c2.681 0 5.003-1.108 6.965-3.324l3.242 5.077c-2.282 3.143-5.864 4.715-10.747 4.715-4.363 0-7.906-1.309-10.627-3.929-2.682-2.578-4.023-6.024-4.023-10.336 0-4.07 1.321-7.455 3.963-10.155 2.641-2.74 5.983-4.11 10.026-4.11 4.803 0 8.426 1.23 10.867 3.687l-3.242 5.501c-1.841-1.773-4.082-2.66-6.724-2.66-2.002 0-3.763.725-5.284 2.176-1.481 1.37-2.221 3.224-2.221 5.561 0 2.337.76 4.231 2.281 5.682 1.601 1.411 3.442 2.115 5.524 2.115zm-23.415-15.353c-2.002 0-3.482.968-4.443 2.902v18.254h-6.904v-27.2h6.904v2.66c1.481-2.095 3.543-3.144 6.185-3.144 1.88 0 3.281.343 4.202 1.028l-2.461 6.528c-1.162-.685-2.322-1.028-3.483-1.028zM223.662 44.14c-1.601 2.337-4.262 3.506-7.985 3.506-2.562 0-4.613-.756-6.154-2.267-1.541-1.511-2.311-3.536-2.311-6.075 0-2.82.9-4.996 2.701-6.528 1.802-1.531 4.183-2.297 7.145-2.297 2.441 0 4.482.585 6.124 1.753.08-2.417-.27-4.19-1.051-5.319-.78-1.127-2.111-1.692-3.992-1.692-2.082 0-4.443.625-7.085 1.874l-1.741-5.078c2.921-1.732 6.103-2.599 9.546-2.599 3.762 0 6.504.928 8.226 2.781 1.72 1.853 2.581 4.694 2.581 8.522v16.562h-6.004V44.14zm-.48-7.616c-1.121-.886-2.702-1.33-4.743-1.33-1.281 0-2.322.302-3.122.907-.801.604-1.201 1.431-1.201 2.478 0 .967.36 1.743 1.081 2.327.72.585 1.641.877 2.762.877 2.321 0 4.062-.826 5.223-2.479v-2.78zm-39.745-.725c.279 1.974 1.15 3.526 2.611 4.654 1.461 1.128 3.292 1.692 5.494 1.692 3.002 0 5.543-.825 7.625-2.478l1.981 4.896c-2.682 2.257-6.124 3.385-10.327 3.385-4.322 0-7.845-1.309-10.567-3.929-2.641-2.578-3.962-6.024-3.962-10.336 0-4.029 1.3-7.414 3.902-10.155 2.602-2.74 6.064-4.11 10.387-4.11 3.562 0 6.584 1.189 9.066 3.566 2.481 2.378 3.723 5.401 3.723 9.067 0 1.612-.141 2.862-.421 3.748h-19.512zm11.377-8.916c-1.141-1.108-2.652-1.662-4.533-1.662-3.923 0-6.284 1.975-7.085 5.923h13.269c.039-1.732-.51-3.152-1.651-4.261zm-33.831 21.065c-2.363 0-4.664-.504-6.905-1.511-2.281-1.048-3.743-2.095-4.383-3.143l3.362-4.534c.76.928 2.021 1.714 3.783 2.358 1.801.685 3.341 1.027 4.623 1.027 1.561.162 2.661-.352 3.302-1.541.64-1.188.22-2.166-1.261-2.932-.6-.322-1.531-.665-2.792-1.027a55.534 55.534 0 0 1-3.482-1.118 22.931 22.931 0 0 1-3.242-1.481 6.816 6.816 0 0 1-2.612-2.509c-.64-1.067-.96-2.347-.96-3.838 0-2.539.92-4.553 2.762-6.044 1.84-1.491 4.222-2.237 7.144-2.237 4.403 0 7.825 1.149 10.267 3.445l-2.582 4.957c-2.201-1.732-4.643-2.599-7.325-2.599-.96 0-1.761.232-2.401.695-.641.464-.961 1.018-.961 1.662 0 1.33 1.701 2.439 5.104 3.325a29.49 29.49 0 0 1 3.302.936c.96.343 1.951.827 2.972 1.451a6.613 6.613 0 0 1 2.371 2.448c.56 1.008.841 2.176.841 3.506 0 2.659-.991 4.775-2.972 6.347-1.981 1.571-4.633 2.357-7.955 2.357zM125.8 35.799c.28 1.974 1.15 3.526 2.612 4.654 1.46 1.128 3.292 1.692 5.493 1.692 3.002 0 5.544-.825 7.625-2.478l1.982 4.896c-2.682 2.257-6.124 3.385-10.327 3.385-4.323 0-7.846-1.309-10.567-3.929-2.642-2.578-3.963-6.024-3.963-10.336 0-4.029 1.301-7.414 3.903-10.155 2.601-2.74 6.064-4.11 10.387-4.11 3.562 0 6.583 1.189 9.066 3.566 2.481 2.378 3.722 5.401 3.722 9.067 0 1.612-.141 2.862-.42 3.748H125.8zm11.378-8.916c-1.141-1.108-2.653-1.662-4.533-1.662-3.924 0-6.285 1.975-7.085 5.923h13.269c.039-1.732-.511-3.152-1.651-4.261zm-31.431 17.559c-2.082 2.217-4.664 3.325-7.745 3.325-3.803 0-6.885-1.249-9.246-3.748-2.322-2.498-3.483-5.842-3.483-10.034 0-4.271 1.381-7.757 4.143-10.457 2.801-2.74 6.364-4.11 10.687-4.11 2.282 0 4.163.444 5.644 1.33V4.972h6.904v42.311h-6.904v-2.841zm0-16.864c-1.722-1.088-3.503-1.632-5.344-1.632-2.201 0-4.043.706-5.523 2.116-1.482 1.411-2.222 3.304-2.222 5.681 0 2.297.64 4.131 1.922 5.501 1.28 1.37 2.901 2.055 4.863 2.055 2.361 0 4.462-.927 6.304-2.78V27.578z"/>
    <path fill="#2059AB" fill-rule="evenodd" d="M30.02 64V33.778l26.488-16V48L30.02 64zM1.766 14.222L28.254 0l26.488 14.222-26.488 16-26.488-16zM26.488 64L0 48V17.778l26.488 16V64z"/>
</svg>
