<svg xmlns="http://www.w3.org/2000/svg" width="21" height="21">
    <path fill="#F8930F" fill-rule="evenodd" d="M20.837 10.78c0-5.526-4.472-10.005-9.989-10.005S.859 5.254.859 10.78c0 5.525 4.472 10.005 9.989 10.005s9.989-4.48 9.989-10.005z"/>
    <path fill="#FFF" fill-rule="evenodd" d="M14.819 10.068c-.161.249-.371.46-.631.633-.261.173-.592.299-.994.381.398.164.698.325.9.484.292.223.511.511.653.861.142.35.188.724.136 1.125a2.257 2.257 0 0 1-.593 1.263c-.333.364-.771.618-1.313.758a3.506 3.506 0 0 1-.684.099l-.208 1.609-1.489-.202.192-1.483-.11-.013-.848-.115-.192 1.481-1.492-.201.192-1.482-2.681-.363.567-1.191.348.047c.231.031.39.031.478.002a.354.354 0 0 0 .196-.151c.043-.07.082-.238.116-.499l.65-5.024c.035-.267.04-.439.016-.517a.393.393 0 0 0-.151-.198c-.077-.054-.231-.097-.462-.128l-.348-.047.162-1.246 2.275.307.191-1.481 1.492.202-.192 1.481.959.13.192-1.481 1.49.202L13.43 6.9c.215.073.41.153.57.247.413.243.716.55.907.925.191.374.259.766.206 1.174a1.982 1.982 0 0 1-.294.822zm-5.413 1.349l-.343 2.655 1.201.163c.63.085 1.102.096 1.416.032.314-.062.56-.19.739-.38a1.22 1.22 0 0 0 .322-.7 1.25 1.25 0 0 0-.121-.763 1.19 1.19 0 0 0-.569-.518c-.261-.123-.741-.231-1.444-.327l-1.201-.162zm3.376-2.761a1.084 1.084 0 0 0-.517-.435c-.237-.104-.671-.199-1.306-.285l-1.083-.147-.284 2.196 1.084.147c.568.077.994.091 1.276.041.283-.048.503-.151.663-.307a.957.957 0 0 0 .284-.577.98.98 0 0 0-.117-.633zm-.697 8.627v-.002h.001l-.001.002z"/>
</svg>
