<svg xmlns="http://www.w3.org/2000/svg" width="21" height="13">
    <path fill="#F8930F" fill-rule="evenodd" d="M16.556 6.876c0-3.315-2.556-6.003-5.708-6.003S5.14 3.561 5.14 6.876s2.556 6.003 5.708 6.003 5.708-2.688 5.708-6.003z"/>
    <path fill="#F8930F" fill-rule="evenodd" d="M13.462 12.879c2.163-1.041 3.665-3.338 3.665-6.003S15.625 1.915 13.462.873h7.375v12.006h-7.375zm-5.228 0H.859V.873h7.375C6.071 1.915 4.569 4.211 4.569 6.876s1.502 4.962 3.665 6.003z"/>
    <path fill="#FFF" fill-rule="evenodd" d="M13.117 6.449c-.092.15-.212.276-.361.38a1.564 1.564 0 0 1-.568.229c.228.098.4.195.515.29.167.134.292.306.373.516.081.21.108.435.078.676a1.383 1.383 0 0 1-.339.757 1.48 1.48 0 0 1-.75.455 1.938 1.938 0 0 1-.391.06l-.119.965-.851-.121.11-.89-.063-.008-.485-.069-.11.889-.852-.121.11-.889-1.532-.218.324-.715.198.029a.692.692 0 0 0 .274.001.203.203 0 0 0 .112-.091.982.982 0 0 0 .066-.299l.371-3.015c.02-.16.023-.263.009-.31a.22.22 0 0 0-.086-.118c-.044-.033-.132-.058-.264-.077l-.198-.028.092-.748 1.3.184.109-.888.853.121-.11.889.548.077.109-.888.852.121-.117.953c.122.044.234.092.325.149.236.145.409.33.519.554.109.225.148.46.117.705a1.225 1.225 0 0 1-.168.493zm-3.093.809l-.196 1.594.686.097c.36.051.63.058.809.019a.75.75 0 0 0 .423-.228.755.755 0 0 0 .184-.419.786.786 0 0 0-.069-.458.697.697 0 0 0-.325-.311c-.15-.074-.424-.139-.826-.196l-.686-.098zm1.929-1.656a.626.626 0 0 0-.296-.261c-.135-.062-.383-.119-.745-.171l-.62-.088L10.13 6.4l.62.088c.324.046.568.054.729.024a.685.685 0 0 0 .379-.184.587.587 0 0 0 .162-.346.612.612 0 0 0-.067-.38zm-.398 5.176v-.001.001z"/>
</svg>
