<svg xmlns="http://www.w3.org/2000/svg" width="14" height="21">
    <path fill-rule="evenodd" d="M11.842 7.665l1.799 7.884-2.729-4.834.93-3.05zM7.607 4.85V.943l3.986 5.751-1.034 3.393L7.607 4.85zm.857 12.125H6.229l-1.886-6.196 3.004-5.323 3.004 5.323-1.887 6.196zM3.101 6.694L7.087.943V4.85l-2.952 5.237-1.034-3.393zm-2.048 8.855l1.798-7.884.93 3.05-2.728 4.834zm4.631 1.426H.85l3.139-5.569 1.695 5.569zm1.211 3.977l-5.562-3.441h4.512l1.05 3.441zm1.408-3.441l-.956 3.141-.957-3.141h1.913zm2.401-6.105l3.139 5.569H9.01l1.694-5.569zm2.656 6.105l-5.561 3.441 1.05-3.441h4.511z"/>
</svg>
