<svg xmlns="http://www.w3.org/2000/svg" width="21" height="21">
    <path fill="#3D3E3C" fill-rule="evenodd" d="M20.837 10.828c0-5.526-4.472-10.005-9.989-10.005S.859 5.302.859 10.828c0 5.525 4.472 10.005 9.989 10.005s9.989-4.48 9.989-10.005z"/>
    <path fill="#F9FAFB" fill-rule="evenodd" d="M19.089 10.828c0-4.559-3.69-8.254-8.241-8.254s-8.241 3.695-8.241 8.254c0 4.558 3.69 8.254 8.241 8.254s8.241-3.696 8.241-8.254z"/>
    <path fill="#B6B7BA" fill-rule="evenodd" d="M4.444 12.51L16.81 7.958c.214.445.384.921.489 1.416L4.988 13.911c-.23-.44-.415-.91-.544-1.401zm-.215-1.68c0-.556.07-1.091.2-1.606l10.273-3.782c.459.33.869.715 1.234 1.146L4.229 10.895v-.065zm6.617-6.629a6.55 6.55 0 0 1 1.888.275L5.308 7.208a6.599 6.599 0 0 1 5.538-3.007zm6.348 8.504l-9.969 3.672a6.798 6.798 0 0 1-1.303-1.12l11.537-4.247a6.559 6.559 0 0 1-.265 1.695zm-6.348 4.753c-.514 0-1.014-.06-1.493-.17l6.807-2.507a6.608 6.608 0 0 1-5.314 2.677z"/>
    <path fill="#FFF" fill-rule="evenodd" d="M6.703 15.069l.728-2.744-1.092.404.48-1.868 1.109-.41 1.309-4.933h3.448l-.949 3.524 1.238-.458-.487 1.868-1.256.465-.493 1.834h4.628l-.603 2.318h-8.06z"/>
    <path fill="#3D3E3C" fill-rule="evenodd" d="M12.359 5.768l-.99 3.676 1.243-.459-.334 1.278-1.254.464-.612 2.274h4.631l-.473 1.818H7.028l.768-2.896-1.096.406.328-1.278 1.108-.41 1.293-4.873h2.93m.652-.5H9.045l-.099.372-1.226 4.621-.865.321-.245.09-.066.254-.328 1.278-.238.925.895-.331.193-.072-.521 1.964-.166.629H14.956l.098-.374.472-1.818.163-.626h-4.625l.375-1.394 1.013-.375.244-.091.066-.252.333-1.278.242-.928-.898.332-.336.125.738-2.742.17-.63z"/>
</svg>
