<svg xmlns="http://www.w3.org/2000/svg" width="18" height="21">
    <defs>
        <linearGradient id="a" x1="0%" x2="86.603%" y1="50%" y2="0%">
            <stop offset="0%" stop-color="#BAE903"/>
            <stop offset="100%" stop-color="#51BF05"/>
        </linearGradient>
    </defs>
    <path fill="#0689C7" fill-rule="evenodd" d="M10.918 14.316l-.015-7.483 6.935-2.497v13.278l-6.92-3.298zM7.842 7.471L1.369 4.406 11.051.919l6.473 3.066-6.621 2.384-3.061 1.102zm-.175 13.457L.855 17.699V4.646l6.812 3.229v13.053z"/>
    <path fill="url(#a)" d="M10.918 14.316l-.015-7.483 6.935-2.497v13.278l-6.92-3.298zM7.842 7.471L1.369 4.406 11.051.919l6.473 3.066-6.621 2.384-3.061 1.102zm-.175 13.457L.855 17.699V4.646l6.812 3.229v13.053z"/>
</svg>
