<svg xmlns="http://www.w3.org/2000/svg" width="20" height="21">
    <defs>
        <linearGradient id="a" x1="0%" y1="0%" y2="0%">
            <stop offset="0%" stop-color="#06A0DB"/>
            <stop offset="100%" stop-color="#0689C7"/>
        </linearGradient>
    </defs>
    <path fill="#FFF" fill-rule="evenodd" d="M17.679 13.123a4.326 4.326 0 0 0-2.121-.534l.007-.003c-.987.011-1.796-.757-1.808-1.716-.011-.946.757-1.723 1.725-1.756l-.002-.001a4.326 4.326 0 0 0 2.147-.58c2.016-1.165 2.68-3.699 1.481-5.659-1.2-1.961-3.807-2.605-5.824-1.44-2.016 1.166-2.679 3.7-1.48 5.66a1.694 1.694 0 0 1-.617 2.358c-.829.479-1.896.225-2.404-.565h-.001v.003a4.16 4.16 0 0 0-1.584-1.522c-2.042-1.122-4.634-.422-5.789 1.564-1.154 1.985-.433 4.504 1.61 5.626 2.043 1.122 4.634.422 5.789-1.564l.02-.036v.003c.49-.802 1.552-1.079 2.392-.619a1.696 1.696 0 0 1 .67 2.345c-1.154 1.986-.434 4.505 1.609 5.626 2.043 1.122 4.635.422 5.789-1.564 1.154-1.985.434-4.504-1.609-5.626z"/>
    <path fill="url(#a)" d="M17.679 13.123a4.326 4.326 0 0 0-2.121-.534l.007-.003c-.987.011-1.796-.757-1.808-1.716-.011-.946.757-1.723 1.725-1.756l-.002-.001a4.326 4.326 0 0 0 2.147-.58c2.016-1.165 2.68-3.699 1.481-5.659-1.2-1.961-3.807-2.605-5.824-1.44-2.016 1.166-2.679 3.7-1.48 5.66a1.694 1.694 0 0 1-.617 2.358c-.829.479-1.896.225-2.404-.565h-.001v.003a4.16 4.16 0 0 0-1.584-1.522c-2.042-1.122-4.634-.422-5.789 1.564-1.154 1.985-.433 4.504 1.61 5.626 2.043 1.122 4.634.422 5.789-1.564l.02-.036v.003c.49-.802 1.552-1.079 2.392-.619a1.696 1.696 0 0 1 .67 2.345c-1.154 1.986-.434 4.505 1.609 5.626 2.043 1.122 4.635.422 5.789-1.564 1.154-1.985.434-4.504-1.609-5.626z"/>
</svg>
