<svg xmlns="http://www.w3.org/2000/svg" width="13" height="20">
    <path fill="#989898" fill-rule="evenodd" d="M2.145 20l-.219-.13 2.139-3.817.219.13L2.145 20zm-.484-1.657l1.235-2.204.219.131-1.235 2.203-.219-.13z"/>
    <path fill="#ED8117" fill-rule="evenodd" d="M7.439 11.606l-1.531-.911-1.531-.91-.865 1.817c-.31.654-.292 1.378.002 1.898.259.459.719.733 1.234.735.584.002 1.202-.344 1.596-.948l1.095-1.681z"/>
    <path fill="#EEBB18" fill-rule="evenodd" d="M6.965 11.324l-1.057-.629-1.057-.628-.565 1.197c-.203.43-.18.913.028 1.263.183.309.501.498.852.507.399.01.815-.211 1.075-.607l.724-1.103z"/>
    <path fill="#DCF2F9" fill-rule="evenodd" d="M11.78.215s-3.974.24-5.273 2.948c-.953 1.989-1.96 4.446-2.427 5.611a.843.843 0 0 0 .342 1.037l1.486.884 1.486.885a.792.792 0 0 0 1.043-.213c.745-1 2.307-3.127 3.501-4.972 1.627-2.513-.158-6.18-.158-6.18z"/>
    <path fill="#FFF" fill-rule="evenodd" d="M10.627 5.483c.43-.767.174-1.749-.57-2.192a1.534 1.534 0 0 0-2.128.587c-.43.768-.175 1.75.57 2.193.745.443 1.698.18 2.128-.588z"/>
    <path fill="#5A6971" fill-rule="evenodd" d="M12.114 6.515c-.544.84-1.16 1.732-1.746 2.559.367.787 1.295 3.242-.333 5.178-.008-1.211-1.025-2.445-1.373-2.833l-.058.08a1.01 1.01 0 0 1-.808.408.98.98 0 0 1-.507-.14L4.317 9.999a1.067 1.067 0 0 1-.432-1.307l.038-.093c-.5-.116-2.046-.406-3.067.192.812-2.421 3.34-2.82 4.185-2.886a77.05 77.05 0 0 1 1.277-2.838C7.656.278 11.6.009 11.767-.001l.139-.009.062.128c.075.154 1.821 3.809.146 6.397zm-.463-6.07C10.946.519 7.79.978 6.696 3.26c-.937 1.954-1.92 4.345-2.422 5.597a.627.627 0 0 0 .253.767l2.972 1.768c.258.153.59.086.771-.158.801-1.074 2.32-3.147 3.493-4.96 1.372-2.119.179-5.163-.112-5.829zM9.275 6.502c-.3 0-.603-.078-.881-.243-.844-.503-1.135-1.619-.647-2.489a1.765 1.765 0 0 1 1.073-.849 1.713 1.713 0 0 1 1.342.182c.409.244.701.636.824 1.106.122.47.059.961-.177 1.383-.327.583-.923.91-1.534.91zm1.304-2.18a1.373 1.373 0 0 0-.628-.843 1.303 1.303 0 0 0-1.022-.139 1.347 1.347 0 0 0-.818.647c-.371.663-.15 1.513.493 1.896a1.326 1.326 0 0 0 1.84-.508c.18-.321.228-.695.135-1.053z"/>
</svg>
